<svg width="17" height="17" viewBox="0 0 17 17" fill="none" xmlns="http://www.w3.org/2000/svg">
<g clip-path="url(#clip0_567_907)">
<path d="M8.90532 1.21289H2.83389C1.93972 1.21289 1.21484 1.93776 1.21484 2.83194V14.9748C1.21484 15.869 1.93972 16.5938 2.83389 16.5938H8.90532" stroke="#00A886" stroke-width="1.13333"/>
<path d="M4.86163 8.50165C4.64033 8.72295 4.64033 9.08174 4.86163 9.30304L8.46787 12.9093C8.68917 13.1306 9.04796 13.1306 9.26926 12.9093C9.49056 12.688 9.49056 12.3292 9.26926 12.1079L6.06371 8.90234L9.26926 5.69679C9.49056 5.4755 9.49056 5.1167 9.26926 4.89541C9.04796 4.67411 8.68917 4.67411 8.46787 4.89541L4.86163 8.50165ZM15.7861 8.33568L5.26232 8.33568L5.26232 9.46901L15.7861 9.46901L15.7861 8.33568Z" fill="#00A886"/>
</g>
<defs>
<clipPath id="clip0_567_907">
<rect width="17" height="17" fill="white"/>
</clipPath>
</defs>
</svg>
