<svg xmlns="http://www.w3.org/2000/svg" xmlns:xlink="http://www.w3.org/1999/xlink"><defs><style>.cls-1{fill:none;stroke:#000;stroke-linecap:round;stroke-linejoin:round;stroke-width:2px;}</style>
<clipPath id="clip0_567_907">
<rect width="17" height="17" fill="white"/>
</clipPath>
<style>.cls-1{fill:none;stroke:#000;stroke-linecap:round;stroke-linejoin:round;stroke-width:2px;}</style><style>.cls-1{fill:#262626;}</style></defs><symbol id="arrow" viewBox="0 0 25 14">
<path d="M23.8486 12.3379L12.8762 1.26173L1.90377 12.3379" stroke-width="2.00841" stroke-miterlimit="10" stroke-linecap="round" stroke-linejoin="round"/>
</symbol><symbol id="calendar" viewBox="0 0 64 64"><path d="M32.669,50.2c-2.052,0-3.626-0.039-5.104-0.126l-0.44-0.025c-0.702-0.04-1.427-0.082-2.152-0.154  c-1.619-0.161-3.701-0.498-5.451-1.687c-3.821-2.596-3.912-7.297-3.985-11.074l-0.007-0.358c-0.08-3.934-0.005-7.166,0.236-10.172  l0.018-0.23c0.093-1.175,0.198-2.507,0.619-3.726c0.874-2.535,2.759-4.324,5.042-4.785c1.413-0.285,8.036-0.388,12.144-0.388  c1.846,0,6.317,0.021,7.951,0.212c2.849,0.333,4.787,1.839,5.929,4.604c0.732,1.777,0.783,3.947,0.827,5.862  c0.009,0.37,0.018,0.729,0.03,1.072c0.104,2.705,0.158,5.647,0.165,8.994c0.008,4.319-0.66,9.495-5.934,11.192  c-2.07,0.666-4.295,0.755-5.789,0.764l-1.388,0.01C34.478,50.192,33.573,50.2,32.669,50.2z M33.588,19.474  c-5.524,0-10.794,0.156-11.748,0.349c-1.581,0.319-2.906,1.618-3.547,3.476c-0.337,0.978-0.428,2.123-0.516,3.231l-0.019,0.232  c-0.235,2.937-0.309,6.105-0.229,9.971l0.007,0.361c0.071,3.66,0.145,7.444,3.11,9.458c1.377,0.936,3.141,1.213,4.524,1.351  c0.697,0.069,1.394,0.109,2.069,0.147l0.444,0.026c1.437,0.084,2.974,0.123,4.985,0.123c0.898,0,1.798-0.007,2.695-0.015l1.392-0.01  c2.164-0.013,3.813-0.226,5.188-0.668c3.196-1.028,4.557-3.805,4.547-9.284c-0.007-3.322-0.06-6.24-0.163-8.921  c-0.014-0.354-0.022-0.723-0.031-1.103c-0.04-1.74-0.086-3.712-0.678-5.146c-0.873-2.118-2.163-3.129-4.312-3.38  C40.245,19.548,37.359,19.474,33.588,19.474z"/><path d="M38.545,23.786c-0.55,0-0.997-0.444-1-0.995c-0.006-1.212-0.004-3.505-0.002-5.688l0.002-2.456c0-0.552,0.448-1,1-1l0,0  c0.553,0,1,0.448,1,1l-0.002,2.457c-0.002,2.178-0.004,4.466,0.002,5.675c0.003,0.552-0.442,1.002-0.995,1.005  C38.549,23.786,38.547,23.786,38.545,23.786z"/><path d="M25.459,23.786c-0.55,0-0.998-0.445-1-0.996c-0.005-1.172-0.003-3.359-0.002-5.478l0.002-2.664c0-0.552,0.448-1,1-1l0,0  c0.552,0,1,0.448,1,1l-0.002,2.666c-0.001,2.115-0.003,4.296,0.002,5.467c0.002,0.552-0.443,1.002-0.996,1.004  C25.462,23.786,25.46,23.786,25.459,23.786z"/><path d="M24.729,29.678c-3.761,0-6.756-0.006-7.896-0.022c-0.552-0.008-0.993-0.462-0.985-1.015c0.008-0.547,0.454-0.985,1-0.985  c0.005,0,0.01,0,0.015,0c2.412,0.036,13.714,0.019,21.968,0.009c3.402-0.005,6.385-0.009,8.218-0.009c0.553,0,1,0.448,1,1  s-0.447,1-1,1c-1.832,0-4.813,0.004-8.215,0.009C34.207,29.671,28.979,29.678,24.729,29.678z"/></symbol><symbol id="cancel" viewBox="0 0 32 32"><title/><g id="cross"><line class="cls-1" x1="7" x2="25" y1="7" y2="25"/><line class="cls-1" x1="7" x2="25" y1="25" y2="7"/></g></symbol><symbol id="house" viewBox="0 0 32 32"><path d="  M27,29H5V17H3.235c-1.138,0-1.669-1.419-0.812-2.168L14.131,3.745c1.048-0.993,2.689-0.993,3.737,0l11.707,11.087  C30.433,15.58,29.902,17,28.763,17H27V29z" fill="none" id="XMLID_1_" stroke="#000000" stroke-linecap="round" stroke-linejoin="round" stroke-miterlimit="10" stroke-width="2"/><path d="  M20,29h-8v-6c0-2.209,1.791-4,4-4h0c2.209,0,4,1.791,4,4V29z" fill="none" id="XMLID_2_" stroke="#000000" stroke-linecap="round" stroke-linejoin="round" stroke-miterlimit="10" stroke-width="2"/></symbol><symbol id="icon1" viewBox="0 0 17 17">
<g clip-path="url(#clip0_567_907)">
<path d="M8.90532 1.21289H2.83389C1.93972 1.21289 1.21484 1.93776 1.21484 2.83194V14.9748C1.21484 15.869 1.93972 16.5938 2.83389 16.5938H8.90532" stroke="#00A886" stroke-width="1.13333"/>
<path d="M4.86163 8.50165C4.64033 8.72295 4.64033 9.08174 4.86163 9.30304L8.46787 12.9093C8.68917 13.1306 9.04796 13.1306 9.26926 12.9093C9.49056 12.688 9.49056 12.3292 9.26926 12.1079L6.06371 8.90234L9.26926 5.69679C9.49056 5.4755 9.49056 5.1167 9.26926 4.89541C9.04796 4.67411 8.68917 4.67411 8.46787 4.89541L4.86163 8.50165ZM15.7861 8.33568L5.26232 8.33568L5.26232 9.46901L15.7861 9.46901L15.7861 8.33568Z" fill="#00A886"/>
</g>

</symbol><symbol id="icon2" viewBox="0 0 303.848 303.848">
<g>
	<path d="M297.023,52.375l-3.74-8.728l-50.361,50.348h-33.503l0.026-33.49l49.943-50.039l-9.023-3.618
		c-10.129-4.055-20.739-6.105-31.543-6.105c-46.909,0-85.072,38.156-85.072,85.04c0,9.293,1.53,18.471,4.557,27.327L10.714,240.682
		C3.798,247.584,0,256.775,0,266.543s3.805,18.953,10.714,25.842c6.896,6.915,16.08,10.72,25.849,10.72s18.946-3.805,25.849-10.72
		L189.27,165.533c9.467,3.515,19.383,5.296,29.551,5.296c46.884,0,85.027-38.15,85.027-85.046
		C303.848,74.214,301.553,62.98,297.023,52.375z M218.821,157.975c-9.891,0-19.493-1.986-28.542-5.887l-4.004-1.735L53.323,283.298
		c-8.965,8.965-24.576,8.965-33.529,0c-4.48-4.467-6.947-10.431-6.947-16.755c0-6.337,2.468-12.288,6.947-16.768l133.492-133.472
		l-1.555-3.927c-3.406-8.573-5.135-17.526-5.135-26.594c0-39.801,32.404-72.186,72.218-72.186c5.81,0,11.575,0.701,17.198,2.095
		L196.584,55.19l-0.039,51.665h51.691l40.193-40.181c1.71,6.195,2.558,12.59,2.558,19.113
		C290.994,125.59,258.622,157.975,218.821,157.975z M46.061,265.689c0,5.135-4.165,9.3-9.3,9.3c-5.141,0-9.306-4.165-9.306-9.3
		c0-5.148,4.165-9.312,9.306-9.312C41.89,256.376,46.061,260.541,46.061,265.689z"/>
</g>
<g>
</g>
<g>
</g>
<g>
</g>
<g>
</g>
<g>
</g>
<g>
</g>
<g>
</g>
<g>
</g>
<g>
</g>
<g>
</g>
<g>
</g>
<g>
</g>
<g>
</g>
<g>
</g>
<g>
</g>
</symbol><symbol id="logo" viewBox="0 0 810 363">
<path d="M0 63H250L125 215L0 63Z" fill="#ED2F2F"/>
<path d="M157 112.917L133.745 111.428L124.987 90L116.229 111.428L93 112.917L110.817 127.65L104.97 150L124.987 137.678L145.004 150L139.158 127.65L157 112.917Z" fill="white"/>
<path d="M285.102 215V63.2H309.482V123.69H385.842V63.2H410.222V215H385.842V145.54H309.482V215H285.102ZM457.817 215V63.2H482.197V215H457.817ZM529.683 215V63.2H577.293C601.98 63.2 621.913 70.1767 637.093 84.13C652.273 98.0833 659.863 116.33 659.863 138.87C659.863 161.103 652.197 179.35 636.863 193.61C621.683 207.87 601.827 215 577.293 215H529.683ZM554.063 193.15H577.063C594.543 193.15 608.497 188.167 618.923 178.2C629.503 168.08 634.793 154.97 634.793 138.87C634.793 122.617 629.58 109.66 619.153 100C608.727 90.1867 594.697 85.28 577.063 85.28H554.063V193.15ZM698.131 215V63.2H797.951V85.05H722.511V123.92H779.321V145.08H722.511V193.15H800.711V215H698.131Z" fill="#212F84"/>
<path d="M322.724 292.659L306.37 320.92V340H298.767V320.92L282.413 292.659H290.877L302.569 313.245L314.332 292.659H322.724ZM325.726 316.33C325.63 309.587 328.045 303.801 332.97 298.971C337.896 294.142 343.753 291.775 350.544 291.87C357.286 291.775 363.144 294.142 368.117 298.971C373.138 303.801 375.577 309.587 375.433 316.33C375.577 323.072 373.138 328.858 368.117 333.688C363.144 338.518 357.286 340.885 350.544 340.789C343.753 340.885 337.872 338.518 332.899 333.688C327.973 328.858 325.582 323.072 325.726 316.33ZM367.615 316.258C367.615 311.285 365.989 307.148 362.737 303.849C359.486 300.502 355.445 298.828 350.615 298.828C345.738 298.828 341.673 300.478 338.422 303.777C335.218 307.077 333.616 311.237 333.616 316.258C333.616 321.327 335.218 325.535 338.422 328.882C341.625 332.182 345.69 333.831 350.615 333.831C355.445 333.831 359.486 332.158 362.737 328.81C365.989 325.463 367.615 321.279 367.615 316.258ZM384.06 320.849V292.659H391.664V321.351C391.664 325.272 392.739 328.332 394.891 330.532C397.091 332.732 399.984 333.831 403.57 333.831C407.109 333.831 409.954 332.732 412.106 330.532C414.258 328.332 415.334 325.272 415.334 321.351V292.659H422.937V320.849C422.937 326.969 421.12 331.823 417.486 335.409C413.899 338.996 409.261 340.789 403.57 340.789C397.784 340.789 393.074 338.996 389.44 335.409C385.854 331.823 384.06 326.969 384.06 320.849ZM472.812 340H464.133L450.648 321.709H441.969V340H434.366V292.659H451.652C456.434 292.659 460.308 294.022 463.272 296.748C466.237 299.426 467.72 302.893 467.72 307.148C467.72 310.257 466.907 312.982 465.281 315.325C463.703 317.669 461.479 319.39 458.61 320.49L472.812 340ZM441.969 299.402V314.967H451.509C454.091 314.967 456.124 314.273 457.606 312.887C459.136 311.452 459.901 309.563 459.901 307.22C459.901 304.877 459.136 302.988 457.606 301.554C456.124 300.119 454.091 299.402 451.509 299.402H441.969ZM499.72 340V292.659H507.323V311.524H531.137V292.659H538.74V340H531.137V318.338H507.323V340H499.72ZM547.845 316.33C547.75 309.587 550.164 303.801 555.09 298.971C560.015 294.142 565.873 291.775 572.663 291.87C579.406 291.775 585.263 294.142 590.237 298.971C595.258 303.801 597.696 309.587 597.553 316.33C597.696 323.072 595.258 328.858 590.237 333.688C585.263 338.518 579.406 340.885 572.663 340.789C565.873 340.885 559.991 338.518 555.018 333.688C550.093 328.858 547.702 323.072 547.845 316.33ZM589.734 316.258C589.734 311.285 588.109 307.148 584.857 303.849C581.605 300.502 577.565 298.828 572.735 298.828C567.857 298.828 563.793 300.478 560.541 303.777C557.337 307.077 555.735 311.237 555.735 316.258C555.735 321.327 557.337 325.535 560.541 328.882C563.745 332.182 567.81 333.831 572.735 333.831C577.565 333.831 581.605 332.158 584.857 328.81C588.109 325.463 589.734 321.279 589.734 316.258ZM603.311 330.532L608.69 326.443C612.133 331.464 616.27 333.975 621.099 333.975C623.538 333.975 625.499 333.377 626.981 332.182C628.511 330.986 629.276 329.384 629.276 327.376C629.276 325.75 628.774 324.483 627.77 323.574C626.766 322.618 624.949 321.518 622.319 320.275L617.083 317.836C613.401 316.162 610.627 314.321 608.762 312.313C606.945 310.257 606.036 307.722 606.036 304.71C606.036 300.932 607.471 297.848 610.34 295.457C613.209 293.066 616.748 291.87 620.956 291.87C624.255 291.87 627.244 292.635 629.922 294.166C632.648 295.696 634.752 297.752 636.234 300.334L630.926 304.423C628.344 300.597 625.02 298.685 620.956 298.685C618.852 298.685 617.13 299.187 615.791 300.191C614.453 301.195 613.783 302.606 613.783 304.423C613.831 305.284 613.927 306.001 614.07 306.575C614.261 307.101 614.716 307.674 615.433 308.296C616.15 308.87 616.652 309.229 616.939 309.372C617.226 309.515 618.158 309.994 619.737 310.807C620.023 310.95 620.239 311.07 620.382 311.165L625.69 313.604C629.659 315.421 632.528 317.358 634.297 319.414C636.114 321.47 637.023 324.029 637.023 327.089C637.023 331.154 635.517 334.453 632.504 336.987C629.539 339.522 625.762 340.789 621.171 340.789C617.346 340.789 613.879 339.88 610.77 338.063C607.662 336.246 605.176 333.736 603.311 330.532ZM657.867 340V299.474H641.943V292.659H681.465V299.474H665.47V340H657.867ZM688.567 340V292.659H696.17V340H688.567ZM739.527 292.659H747.13V340.789H744.548L715.713 307.937V340H708.11V291.87H710.764L739.527 324.578V292.659ZM756.235 316.33C756.092 309.587 758.483 303.801 763.408 298.971C768.381 294.142 774.311 291.775 781.197 291.87C789.517 291.87 796.045 295.17 800.779 301.769L795.256 306.288C791.717 301.315 787.007 298.828 781.125 298.828C776.152 298.828 772.063 300.478 768.86 303.777C765.704 307.077 764.126 311.237 764.126 316.258C764.126 321.327 765.751 325.559 769.003 328.954C772.303 332.301 776.487 333.975 781.555 333.975C787.868 333.975 792.578 331.584 795.686 326.802V321.709H781.125V314.967H803.289V328.308C801.137 332.134 798.101 335.17 794.18 337.418C790.259 339.665 785.931 340.789 781.197 340.789C774.263 340.885 768.334 338.542 763.408 333.76C758.531 328.93 756.14 323.12 756.235 316.33Z" fill="#212F84"/>
<path d="M284 253.5L799 253.5" stroke="#212F84" stroke-width="5" stroke-linecap="round"/>
</symbol><symbol id="plus" viewBox="0 0 32 32"><title/><g id="plus"><line class="cls-1" x1="16" x2="16" y1="7" y2="25"/><line class="cls-1" x1="7" x2="25" y1="16" y2="16"/></g></symbol><symbol id="search" viewBox="0 0 21 21">
<circle cx="9" cy="9" r="7" stroke-width="2"/>
<path d="M14.0371 14.0366L19.9636 19.9631" stroke-width="2" stroke-linecap="round"/>
</symbol><symbol id="settings" viewBox="0 0 174.248 174.248">
<g>
	<path d="M173.145,73.91c-0.413-2.722-2.29-4.993-4.881-5.912l-13.727-4.881c-0.812-2.3-1.733-4.536-2.754-6.699l6.247-13.146
		c1.179-2.479,0.899-5.411-0.729-7.628c-5.265-7.161-11.556-13.452-18.698-18.693c-2.219-1.629-5.141-1.906-7.625-0.724
		l-13.138,6.242c-2.163-1.021-4.402-1.94-6.704-2.752l-4.883-13.729c-0.919-2.586-3.184-4.458-5.9-4.876
		c-9.65-1.483-16.792-1.483-26.457,0c-2.713,0.418-4.981,2.29-5.9,4.876l-4.883,13.729c-2.302,0.812-4.541,1.731-6.702,2.752
		l-13.143-6.242c-2.479-1.181-5.406-0.904-7.623,0.724c-7.142,5.241-13.433,11.532-18.698,18.693
		c-1.629,2.217-1.908,5.148-0.729,7.628l6.247,13.146c-1.021,2.159-1.94,4.4-2.754,6.699L5.982,68.003
		c-2.589,0.919-4.463,3.189-4.879,5.907c-0.749,4.92-1.099,9.115-1.099,13.219c0,4.098,0.35,8.299,1.099,13.219
		c0.413,2.722,2.29,4.993,4.881,5.912l13.727,4.881c0.814,2.304,1.736,4.541,2.754,6.704l-6.247,13.141
		c-1.179,2.479-0.899,5.411,0.727,7.623c5.258,7.156,11.549,13.447,18.7,18.698c2.217,1.629,5.144,1.911,7.625,0.724l13.138-6.242
		c2.163,1.021,4.402,1.94,6.704,2.752l4.883,13.729c0.919,2.586,3.184,4.458,5.9,4.876c4.828,0.744,9.154,1.104,13.228,1.104
		c4.074,0,8.401-0.36,13.228-1.104c2.715-0.418,4.981-2.29,5.9-4.876l4.883-13.729c2.302-0.812,4.541-1.731,6.704-2.752
		l13.138,6.242c2.484,1.186,5.411,0.904,7.628-0.724c7.159-5.26,13.45-11.551,18.698-18.698c1.626-2.212,1.906-5.144,0.727-7.623
		l-6.247-13.141c1.021-2.163,1.942-4.405,2.754-6.704l13.727-4.881c2.591-0.919,4.468-3.189,4.881-5.912
		c0.749-4.92,1.099-9.12,1.099-13.219S173.894,78.829,173.145,73.91z M158.949,93.72l-12.878,4.58
		c-2.251,0.797-3.982,2.625-4.66,4.92c-1.15,3.889-2.664,7.569-4.504,10.943c-1.142,2.1-1.213,4.619-0.187,6.777l5.841,12.285
		c-2.822,3.389-5.943,6.515-9.337,9.334l-12.283-5.834c-2.161-1.036-4.672-0.953-6.775,0.185c-3.379,1.838-7.061,3.35-10.953,4.502
		c-2.29,0.676-4.118,2.406-4.917,4.657l-4.582,12.883c-4.677,0.476-8.503,0.476-13.18,0l-4.582-12.883
		c-0.8-2.246-2.628-3.982-4.917-4.657c-3.894-1.152-7.579-2.664-10.953-4.502c-2.103-1.147-4.619-1.22-6.775-0.185l-12.283,5.839
		c-3.391-2.825-6.512-5.946-9.337-9.339l5.841-12.285c1.026-2.159,0.955-4.677-0.187-6.777c-1.835-3.364-3.35-7.049-4.504-10.948
		c-0.678-2.29-2.411-4.118-4.66-4.915l-12.878-4.58c-0.243-2.343-0.36-4.502-0.36-6.592s0.117-4.244,0.36-6.587l12.881-4.584
		c2.248-0.797,3.979-2.625,4.657-4.915c1.152-3.889,2.667-7.574,4.504-10.953c1.142-2.095,1.213-4.619,0.187-6.772l-5.841-12.285
		c2.827-3.393,5.948-6.519,9.337-9.339l12.288,5.839c2.151,1.036,4.677,0.953,6.775-0.185c3.372-1.838,7.054-3.35,10.948-4.502
		c2.29-0.676,4.118-2.411,4.917-4.657l4.582-12.883c4.633-0.481,8.466-0.481,13.18,0l4.582,12.883
		c0.8,2.246,2.628,3.982,4.917,4.657c3.894,1.152,7.579,2.664,10.953,4.502c2.103,1.147,4.614,1.22,6.775,0.185l12.283-5.839
		c3.389,2.82,6.51,5.946,9.337,9.339l-5.841,12.285c-1.026,2.154-0.955,4.677,0.187,6.772c1.843,3.389,3.357,7.069,4.504,10.948
		c0.678,2.295,2.409,4.123,4.66,4.92l12.878,4.58c0.243,2.343,0.36,4.502,0.36,6.592S159.192,91.377,158.949,93.72z"/>
	<path d="M87.124,50.802c-19.062,0-34.571,15.508-34.571,34.571s15.508,34.571,34.571,34.571s34.571-15.508,34.571-34.571
		S106.186,50.802,87.124,50.802z M87.124,105.009c-10.827,0-19.636-8.809-19.636-19.636s8.809-19.636,19.636-19.636
		s19.636,8.809,19.636,19.636S97.951,105.009,87.124,105.009z"/>
</g>
<g>
</g>
<g>
</g>
<g>
</g>
<g>
</g>
<g>
</g>
<g>
</g>
<g>
</g>
<g>
</g>
<g>
</g>
<g>
</g>
<g>
</g>
<g>
</g>
<g>
</g>
<g>
</g>
<g>
</g>
</symbol><symbol id="user" viewBox="0 0 512 512"><path class="cls-1" d="M256.09,266a99.83,99.83,0,1,0-70.66-29.22A99.61,99.61,0,0,0,256.09,266ZM201.47,111.56a77.24,77.24,0,1,1-22.62,54.61A77,77,0,0,1,201.47,111.56Z"/><path class="cls-1" d="M256.09,281.83c-84.6,0-153.43,68.82-153.43,153.42A11.34,11.34,0,0,0,114,446.59H398.17a11.34,11.34,0,0,0,11.34-11.34C409.51,350.65,340.68,281.83,256.09,281.83ZM125.83,423.91c5.76-66.8,62-119.4,130.26-119.4s124.49,52.6,130.25,119.4Z"/></symbol></svg>